<svg xmlns="http://www.w3.org/2000/svg" width="25.223" height="45.363" viewBox="0 0 25.223 45.363">
  <g id="Grupo_1200951" data-name="Grupo 1200951" transform="translate(25.223) rotate(90)">
    <g id="Grupo_78414" data-name="Grupo 78414" transform="translate(0 0)">
      <path id="Trazado_114078" data-name="Trazado 114078" d="M39.135,0C37.35,0,36.47,1.91,35.762,3.445,35.045,5,34.56,5.951,33.646,5.951S32.248,5,31.533,3.445C30.826,1.91,29.945,0,28.162,0S25.5,1.91,24.789,3.445c-.716,1.554-1.2,2.506-2.114,2.506S21.278,5,20.562,3.445C19.854,1.91,18.973,0,17.19,0s-2.664,1.911-3.371,3.447c-.716,1.552-1.2,2.5-2.112,2.5S10.31,5,9.594,3.447C8.887,1.91,8.007,0,6.224,0S3.56,1.91,2.853,3.447C2.137,5,1.652,5.951.74,5.951c-.409,0-.74.445-.74.992s.331.992.74.992c1.783,0,2.663-1.91,3.371-3.445.715-1.553,1.2-2.506,2.112-2.506s1.4.952,2.112,2.506c.707,1.535,1.588,3.445,3.371,3.445s2.663-1.91,3.37-3.445c.716-1.553,1.2-2.506,2.113-2.506s1.4.952,2.113,2.506c.707,1.535,1.588,3.445,3.372,3.445s2.664-1.91,3.373-3.445c.715-1.553,1.2-2.506,2.114-2.506s1.4.952,2.113,2.506c.707,1.535,1.588,3.445,3.372,3.445s2.666-1.91,3.373-3.445c.717-1.553,1.2-2.506,2.115-2.506s1.4.952,2.116,2.506c.707,1.535,1.589,3.445,3.373,3.445.409,0,.739-.443.739-.992s-.331-.992-.739-.992c-.914,0-1.4-.952-2.116-2.506C41.8,1.91,40.92,0,39.135,0Z" transform="translate(0 17.288)" fill="#678aee"/>
      <path id="Trazado_114079" data-name="Trazado 114079" d="M39.135,0C37.35,0,36.47,1.911,35.762,3.445,35.045,5,34.56,5.952,33.646,5.952S32.248,5,31.533,3.447C30.826,1.911,29.945,0,28.162,0S25.5,1.911,24.789,3.447c-.716,1.553-1.2,2.506-2.114,2.506S21.278,5,20.562,3.447C19.854,1.911,18.973,0,17.19,0s-2.664,1.912-3.371,3.447C13.1,5,12.619,5.952,11.707,5.952S10.31,5,9.594,3.447C8.887,1.911,8.007,0,6.224,0S3.56,1.911,2.853,3.447C2.137,5,1.652,5.952.74,5.952c-.409,0-.74.443-.74.992s.331.992.74.992c1.783,0,2.663-1.911,3.371-3.447.715-1.552,1.2-2.5,2.112-2.5s1.4.952,2.112,2.5c.707,1.535,1.588,3.447,3.371,3.447s2.663-1.911,3.37-3.447c.716-1.552,1.2-2.5,2.113-2.5s1.4.952,2.113,2.5c.707,1.535,1.588,3.447,3.372,3.447s2.664-1.911,3.373-3.447c.715-1.552,1.2-2.5,2.114-2.5s1.4.952,2.113,2.5c.707,1.535,1.588,3.447,3.372,3.447s2.666-1.911,3.373-3.447c.717-1.552,1.2-2.5,2.115-2.5s1.4.952,2.116,2.5c.707,1.535,1.589,3.447,3.373,3.447.409,0,.739-.444.739-.992s-.331-.992-.739-.992c-.914,0-1.4-.952-2.116-2.506C41.8,1.911,40.92,0,39.135,0Z" transform="translate(0 8.643)" fill="#678aee"/>
      <path id="Trazado_114080" data-name="Trazado 114080" d="M39.135,0C37.35,0,36.47,1.91,35.762,3.445,35.045,5,34.56,5.951,33.646,5.951S32.248,5,31.533,3.445C30.826,1.91,29.945,0,28.162,0S25.5,1.91,24.789,3.445c-.716,1.553-1.2,2.506-2.114,2.506S21.278,5,20.562,3.445C19.854,1.91,18.973,0,17.19,0s-2.664,1.91-3.371,3.445C13.1,5,12.619,5.951,11.707,5.951S10.31,5,9.594,3.445C8.887,1.91,8.007,0,6.224,0S3.56,1.91,2.853,3.445C2.137,5,1.652,5.951.74,5.951c-.409,0-.74.443-.74.992s.331.992.74.992c1.783,0,2.663-1.911,3.371-3.447.715-1.552,1.2-2.5,2.112-2.5s1.4.952,2.112,2.5c.707,1.535,1.588,3.447,3.371,3.447s2.663-1.911,3.37-3.445c.716-1.553,1.2-2.506,2.113-2.506s1.4.952,2.113,2.506c.707,1.534,1.588,3.445,3.372,3.445s2.664-1.911,3.373-3.445c.715-1.553,1.2-2.506,2.114-2.506s1.4.952,2.113,2.506c.707,1.534,1.588,3.445,3.372,3.445s2.666-1.911,3.373-3.445c.717-1.553,1.2-2.506,2.115-2.506s1.4.952,2.116,2.506c.707,1.534,1.589,3.445,3.373,3.445.409,0,.739-.444.739-.992s-.331-.992-.739-.992c-.914,0-1.4-.952-2.116-2.506C41.8,1.91,40.92,0,39.135,0Z" transform="translate(0 0)" fill="#678aee"/>
    </g>
  </g>
</svg>
