<svg xmlns="http://www.w3.org/2000/svg" xmlns:xlink="http://www.w3.org/1999/xlink" width="108.914" height="108.914" viewBox="0 0 108.914 108.914">
  <defs>
    <filter id="Trazado_874925" x="0" y="0" width="108.914" height="108.914" filterUnits="userSpaceOnUse">
      <feOffset dy="3" input="SourceAlpha"/>
      <feGaussianBlur stdDeviation="3" result="blur"/>
      <feFlood flood-opacity="0.161"/>
      <feComposite operator="in" in2="blur"/>
      <feComposite in="SourceGraphic"/>
    </filter>
  </defs>
  <g id="Grupo_1233227" data-name="Grupo 1233227" transform="translate(-793.376 -11061.037)">
    <g transform="matrix(1, 0, 0, 1, 793.38, 11061.04)" filter="url(#Trazado_874925)">
      <g id="Trazado_874925-2" data-name="Trazado 874925" transform="translate(9 6)" fill="#d7d9de" opacity="0.859">
        <path d="M 45.45676803588867 89.41407012939453 C 39.52198028564453 89.41407012939453 33.76551818847656 88.25206756591797 28.34726715087891 85.96034240722656 C 23.11311721801758 83.74648284912109 18.41204261779785 80.57682800292969 14.37464332580566 76.5394287109375 C 10.33724308013916 72.50202941894531 7.167593002319336 67.80095672607422 4.953730583190918 62.56679534912109 C 2.662005424499512 57.14855575561523 1.500005483627319 51.39208221435547 1.500005483627319 45.45729446411133 C 1.500005483627319 39.52198028564453 2.662005424499512 33.76551818847656 4.953730583190918 28.34726905822754 C 7.167593002319336 23.11310577392578 10.33724308013916 18.41203117370605 14.37464332580566 14.37464332580566 C 18.41204261779785 10.33724403381348 23.11311721801758 7.167593955993652 28.34726715087891 4.953731060028076 C 33.76551818847656 2.662006139755249 39.52198028564453 1.500006198883057 45.45676803588867 1.500006198883057 C 51.39155578613281 1.500006198883057 57.14802932739258 2.662006139755249 62.56626892089844 4.953731060028076 C 67.80043029785156 7.167593955993652 72.50150299072266 10.33724403381348 76.53890228271484 14.37464332580566 C 80.57630920410156 18.41203117370605 83.74595642089844 23.11310577392578 85.95981597900391 28.34726905822754 C 88.25154113769531 33.76551818847656 89.41354370117188 39.52198028564453 89.41354370117188 45.45676803588867 C 89.41354370117188 51.39208221435547 88.25154113769531 57.14855575561523 85.95981597900391 62.56679534912109 C 83.74595642089844 67.80095672607422 80.57630920410156 72.50202941894531 76.53890228271484 76.5394287109375 C 72.50150299072266 80.57682800292969 67.80043029785156 83.74648284912109 62.56626892089844 85.96034240722656 C 57.14802932739258 88.25206756591797 51.39155578613281 89.41407012939453 45.45676803588867 89.41407012939453 Z" stroke="none"/>
        <path d="M 45.45676803588867 3 C 39.72381210327148 3 34.1639404296875 4.12213134765625 28.93159484863281 6.335227966308594 C 23.87622833251953 8.473472595214844 19.33542633056641 11.53517150878906 15.43529510498047 15.435302734375 C 11.53517150878906 19.33543395996094 8.473464965820312 23.87622833251953 6.335227966308594 28.93160247802734 C 4.122123718261719 34.16394424438477 3 39.72381591796875 3 45.4572868347168 C 3 51.19024658203125 4.122123718261719 56.75011825561523 6.335227966308594 61.98246002197266 C 8.473464965820312 67.03782653808594 11.53517150878906 71.57862854003906 15.43529510498047 75.478759765625 C 19.33542633056641 79.37889099121094 23.87622833251953 82.44058990478516 28.93159484863281 84.57883453369141 C 34.1639404296875 86.79193115234375 39.72381210327148 87.9140625 45.45676803588867 87.9140625 C 51.18972396850586 87.9140625 56.74959564208984 86.79193115234375 61.98194122314453 84.57883453369141 C 67.03730773925781 82.44058990478516 71.57810974121094 79.37889099121094 75.47824096679688 75.478759765625 C 79.37837219238281 71.57862854003906 82.44007110595703 67.03782653808594 84.57830810546875 61.98246002197266 C 86.79141235351562 56.75011825561523 87.91353607177734 51.19024658203125 87.91353607177734 45.4567756652832 C 87.91353607177734 39.72381591796875 86.79141235351562 34.16394424438477 84.57830810546875 28.93160247802734 C 82.44007110595703 23.87622833251953 79.37837219238281 19.33543395996094 75.47824096679688 15.435302734375 C 71.57810974121094 11.53517150878906 67.03730773925781 8.473472595214844 61.98194122314453 6.335227966308594 C 56.74959564208984 4.12213134765625 51.18972396850586 3 45.45676803588867 3 M 45.45676803588867 0 C 70.56185150146484 0 90.91353607177734 20.35169219970703 90.91353607177734 45.4567756652832 L 90.91353607177734 45.4572868347168 C 90.91353607177734 70.5623779296875 70.56185150146484 90.9140625 45.45676803588867 90.9140625 C 20.3516845703125 90.9140625 0 70.5623779296875 0 45.4572868347168 L 0 45.4567756652832 C 0 20.35169219970703 20.3516845703125 0 45.45676803588867 0 Z" stroke="none" fill="#fff"/>
      </g>
    </g>
    <g id="Grupo_1227860" data-name="Grupo 1227860" transform="translate(817.102 11079.758)">
      <g id="Grupo_1227859" data-name="Grupo 1227859" transform="translate(10.6 2.5)">
        <g id="Grupo_1227853" data-name="Grupo 1227853" transform="translate(3.683)">
          <g id="Grupo_1227839" data-name="Grupo 1227839">
            <g id="Grupo_1227838" data-name="Grupo 1227838">
              <g id="Grupo_1227837" data-name="Grupo 1227837">
                <g id="Grupo_1227836" data-name="Grupo 1227836">
                  <g id="Grupo_1227829" data-name="Grupo 1227829">
                    <g id="Grupo_1227828" data-name="Grupo 1227828">
                      <g id="Grupo_1227821" data-name="Grupo 1227821" transform="translate(0.127 57.407)">
                        <path id="Trazado_1306844" data-name="Trazado 1306844" d="M18.172,51.129l-4.064-2.286A1.4,1.4,0,0,1,13.6,47.7l4.064,2.413C17.664,50.621,17.791,51,18.172,51.129Z" transform="translate(-13.6 -47.7)" fill="#c4c2c0"/>
                      </g>
                      <g id="Grupo_1227822" data-name="Grupo 1227822" transform="translate(23.115)">
                        <path id="Trazado_1306845" data-name="Trazado 1306845" d="M35.764,4.913,31.7,2.5l9.017,5.08,4.064,2.413Z" transform="translate(-31.7 -2.5)" fill="#b2b0af"/>
                      </g>
                      <g id="Grupo_1227823" data-name="Grupo 1227823" transform="translate(0 15.368)">
                        <path id="Trazado_1306846" data-name="Trazado 1306846" d="M17.691,58.925l-4.064-2.286L13.5,14.6l4.064,2.413Z" transform="translate(-13.5 -14.6)" fill="#b2b0af"/>
                      </g>
                      <g id="Grupo_1227824" data-name="Grupo 1227824" transform="translate(0 30.989)">
                        <path id="Trazado_1306847" data-name="Trazado 1306847" d="M17.691,55.6l-4.064-2.286L13.5,26.9l4.064,2.286Z" transform="translate(-13.5 -26.9)" fill="#c4c2c0"/>
                      </g>
                      <g id="Grupo_1227825" data-name="Grupo 1227825" transform="translate(1.778 0)">
                        <path id="Trazado_1306848" data-name="Trazado 1306848" d="M18.837,17.233,14.9,14.82,36.237,2.5,40.3,4.913Z" transform="translate(-14.9 -2.5)" fill="#d6d4d2"/>
                      </g>
                      <g id="Grupo_1227826" data-name="Grupo 1227826" transform="translate(0 12.32)">
                        <path id="Trazado_1306849" data-name="Trazado 1306849" d="M17.564,17.661,13.5,15.248A3.69,3.69,0,0,1,15.278,12.2l4.064,2.413A3.69,3.69,0,0,0,17.564,17.661Z" transform="translate(-13.5 -12.2)" fill="#c4c2c0"/>
                      </g>
                      <g id="Grupo_1227827" data-name="Grupo 1227827" transform="translate(4.064 2.413)">
                        <path id="Trazado_1306850" data-name="Trazado 1306850" d="M48.959,43.137a3.873,3.873,0,0,1-1.778,3.048L18.605,62.7c-1.016.508-1.778.127-1.778-1.016L16.7,19.768a3.873,3.873,0,0,1,1.778-3.048L39.942,4.4l8.89,5.08Z" transform="translate(-16.7 -4.4)" fill="#e9e8e6"/>
                        <path id="Trazado_1306851" data-name="Trazado 1306851" d="M46.649,42.678a2.207,2.207,0,0,1-.762,1.4L18.327,59.95,18.2,19.309a2.207,2.207,0,0,1,.762-1.4L39.41,6.1l7.112,4.064Z" transform="translate(-16.295 -3.941)" fill="#fff"/>
                      </g>
                    </g>
                  </g>
                  <g id="Grupo_1227835" data-name="Grupo 1227835" transform="translate(27.179 2.413)">
                    <g id="Grupo_1227834" data-name="Grupo 1227834">
                      <g id="Grupo_1227830" data-name="Grupo 1227830" transform="translate(0.127 7.112)">
                        <path id="Trazado_1306852" data-name="Trazado 1306852" d="M37.032,11.905l-1.651-.889A1.25,1.25,0,0,1,35,10l1.651.889A.877.877,0,0,0,37.032,11.905Z" transform="translate(-35 -10)" fill="#b2b0af"/>
                      </g>
                      <g id="Grupo_1227831" data-name="Grupo 1227831">
                        <path id="Trazado_1306853" data-name="Trazado 1306853" d="M36.17,5.035,34.9,4.4l7.747,4.318,1.27.762Z" transform="translate(-34.9 -4.4)" fill="#d6d4d2"/>
                      </g>
                      <g id="Grupo_1227832" data-name="Grupo 1227832">
                        <path id="Trazado_1306854" data-name="Trazado 1306854" d="M36.551,12.4l-1.524-.889L34.9,4.4l1.651.889Z" transform="translate(-34.9 -4.4)" fill="#c4c2c0"/>
                      </g>
                      <g id="Grupo_1227833" data-name="Grupo 1227833" transform="translate(1.651 0.889)">
                        <path id="Trazado_1306855" data-name="Trazado 1306855" d="M36.2,5.1l7.747,4.445L37.724,13.1c-.889.508-1.524.127-1.524-.889Z" transform="translate(-36.2 -5.1)" fill="#d6d4d2"/>
                      </g>
                    </g>
                  </g>
                </g>
              </g>
            </g>
          </g>
          <g id="Grupo_1227852" data-name="Grupo 1227852" transform="translate(8.255 12.955)">
            <g id="Grupo_1227842" data-name="Grupo 1227842">
              <g id="Grupo_1227840" data-name="Grupo 1227840" transform="translate(0 0)">
                <path id="Trazado_1306856" data-name="Trazado 1306856" d="M36.384,12.7l.127,3.175L20,25.4V22.225Z" transform="translate(-20 -12.7)" fill="#a0a8aa"/>
              </g>
              <g id="Grupo_1227841" data-name="Grupo 1227841" transform="translate(3.048)">
                <path id="Trazado_1306857" data-name="Trazado 1306857" d="M22.4,23.622l13.463-7.747L35.736,12.7,22.4,20.447Z" transform="translate(-22.4 -12.7)" fill="#8d9799"/>
              </g>
            </g>
            <g id="Grupo_1227845" data-name="Grupo 1227845" transform="translate(0 4.572)">
              <g id="Grupo_1227843" data-name="Grupo 1227843">
                <path id="Trazado_1306858" data-name="Trazado 1306858" d="M44.512,16.3v3.175L20,33.7V30.525Z" transform="translate(-20 -16.3)" fill="#a0a8aa"/>
              </g>
              <g id="Grupo_1227844" data-name="Grupo 1227844" transform="translate(11.176)">
                <path id="Trazado_1306859" data-name="Trazado 1306859" d="M28.8,27.222l13.336-7.747V16.3L28.8,24.047Z" transform="translate(-28.8 -16.3)" fill="#8d9799"/>
              </g>
            </g>
            <g id="Grupo_1227848" data-name="Grupo 1227848" transform="translate(0 13.844)">
              <g id="Grupo_1227846" data-name="Grupo 1227846" transform="translate(0 0)">
                <path id="Trazado_1306860" data-name="Trazado 1306860" d="M44.512,23.6v3.3L20,41V37.825Z" transform="translate(-20 -23.6)" fill="#a0a8aa"/>
              </g>
              <g id="Grupo_1227847" data-name="Grupo 1227847" transform="translate(11.176)">
                <path id="Trazado_1306861" data-name="Trazado 1306861" d="M28.8,34.649,42.136,26.9V23.6L28.8,31.474Z" transform="translate(-28.8 -23.6)" fill="#8d9799"/>
              </g>
            </g>
            <g id="Grupo_1227851" data-name="Grupo 1227851" transform="translate(0 23.242)">
              <g id="Grupo_1227849" data-name="Grupo 1227849">
                <path id="Trazado_1306862" data-name="Trazado 1306862" d="M44.512,31v3.175L20,48.273V45.1Z" transform="translate(-20 -31)" fill="#a0a8aa"/>
              </g>
              <g id="Grupo_1227850" data-name="Grupo 1227850" transform="translate(11.176)">
                <path id="Trazado_1306863" data-name="Trazado 1306863" d="M28.8,41.922l13.336-7.747V31L28.8,38.747Z" transform="translate(-28.8 -31)" fill="#8d9799"/>
              </g>
            </g>
          </g>
        </g>
        <g id="Grupo_1227858" data-name="Grupo 1227858" transform="translate(0 21.916)">
          <g id="Grupo_1227856" data-name="Grupo 1227856" transform="translate(0)">
            <path id="Trazado_1306864" data-name="Trazado 1306864" d="M22.7,37.751l-3.937,5.715a.393.393,0,0,0-.127-.254,7.916,7.916,0,0,0-1.524-1.143,1.39,1.39,0,0,1-.508-.254L20.537,36.1a.787.787,0,0,1,.508.254A4.8,4.8,0,0,1,22.569,37.5.393.393,0,0,1,22.7,37.751Z" transform="translate(-8.98 -15.342)" fill="#434240"/>
            <path id="Trazado_1306865" data-name="Trazado 1306865" d="M18.251,42a4.8,4.8,0,0,1-1.524-1.143q-.381-.572.381,0A4.8,4.8,0,0,1,18.632,42Q19.013,42.575,18.251,42Z" transform="translate(-8.98 -14.134)" fill="#d8463f"/>
            <path id="Trazado_1306866" data-name="Trazado 1306866" d="M22.666,40.624c-.254.381-.381.762-.635,1.143A57.857,57.857,0,0,1,13.9,53.324s0-.127-.254-.381a11.845,11.845,0,0,0-2.286-1.651c-.508-.254-.762-.381-.762-.254a58,58,0,0,1,7.874-11.812c.254-.381.635-.635.889-1.016,0-.127.381,0,.762.254a10.567,10.567,0,0,1,2.286,1.651c.254.381.254.381.254.508Z" transform="translate(-10.6 -14.786)" fill="#b6b9ba"/>
            <path id="Trazado_1306867" data-name="Trazado 1306867" d="M13.135,50.332a10.567,10.567,0,0,1-2.286-1.651c-.508-.508-.127-.508.635,0a10.567,10.567,0,0,1,2.286,1.651C14.151,50.713,13.9,50.84,13.135,50.332Z" transform="translate(-10.595 -12.048)" fill="#b75151"/>
            <path id="Trazado_1306868" data-name="Trazado 1306868" d="M35.092,21.336c-1.651-.889-3.81-.762-6.35.635-4.953,2.794-8.89,9.652-8.89,15.368,0,2.794,1.016,4.826,2.54,5.715L20.74,42.038c-1.651-.889-2.54-2.921-2.54-5.715,0-5.588,3.937-12.447,8.89-15.368,2.413-1.4,4.7-1.524,6.35-.635Z" transform="translate(-8.548 -19.756)" fill="#434240"/>
            <g id="Grupo_1227854" data-name="Grupo 1227854" transform="translate(9.779 0)">
              <path id="Trazado_1306869" data-name="Trazado 1306869" d="M18.3,33.853c0,2.794,1.016,4.826,2.54,5.715l1.651,1.016c-1.651-.889-2.54-2.921-2.54-5.715a14.1,14.1,0,0,1,.889-4.953L19.189,28.9A13.619,13.619,0,0,0,18.3,33.853Z" transform="translate(-18.3 -17.287)" fill="#21201f"/>
              <path id="Trazado_1306870" data-name="Trazado 1306870" d="M26.393,22.916,24.742,21.9A21.346,21.346,0,0,0,18.9,30.79l1.651,1.016A21.346,21.346,0,0,1,26.393,22.916Z" transform="translate(-18.138 -19.177)" fill="#383736"/>
              <path id="Trazado_1306871" data-name="Trazado 1306871" d="M27.31,21.971c2.413-1.4,4.7-1.524,6.35-.635L32.009,20.32c-1.651-.889-3.81-.762-6.35.635A13.185,13.185,0,0,0,23.5,22.479L25.151,23.5A11.239,11.239,0,0,1,27.31,21.971Z" transform="translate(-16.896 -19.756)" fill="#434240"/>
            </g>
            <path id="Trazado_1306872" data-name="Trazado 1306872" d="M34.714,21.108c-.127,0-.127-.127-.254-.127s-.127-.127-.254-.127c-.254-.127-.381-.127-.635-.254H32.428a8.668,8.668,0,0,0-2.921.635,7.541,7.541,0,0,0-1.016.508C23.537,24.537,19.6,31.4,19.6,37.111V38a1.145,1.145,0,0,0,.127.635v.127c0,.254.127.381.127.635s.127.381.127.635c0,.127.127.381.127.508s.127.254.127.381.127.254.127.381c.127.254.254.381.381.635,0,.127.127.127.127.254.127.254.381.381.508.508.127,0,.127.127.254.127.127.127.127.127.254.127,1.651,1.016,3.937.889,6.477-.508,4.953-2.794,8.89-9.652,8.89-15.368.127-3.048-.889-5.08-2.54-5.969ZM20.489,36.984c0-5.334,3.81-11.939,8.382-14.606a7.238,7.238,0,0,1,3.556-1.143,6.375,6.375,0,0,1,1.524.254,6.2,6.2,0,0,1,1.4,4.445c0,5.334-3.81,11.939-8.382,14.606a6.87,6.87,0,0,1-3.556,1.143,6.375,6.375,0,0,1-1.524-.254,6.2,6.2,0,0,1-1.4-4.445Z" transform="translate(-8.169 -19.528)" fill="#2d2c2b"/>
            <path id="Trazado_1306873" data-name="Trazado 1306873" d="M36.006,26.607c0,5.334-3.81,11.939-8.382,14.606a6.87,6.87,0,0,1-3.556,1.143A4.1,4.1,0,0,1,21.4,41.34a3.222,3.222,0,0,0,1.524.254,7.238,7.238,0,0,0,3.556-1.143c4.7-2.667,8.382-9.271,8.382-14.606a6.419,6.419,0,0,0-1.4-4.445c1.524.762,2.54,2.54,2.54,5.207Z" transform="translate(-7.683 -19.312)" fill="#434240"/>
            <path id="Trazado_1306874" data-name="Trazado 1306874" d="M35.16,25.9c0,5.334-3.81,11.939-8.382,14.606a6.87,6.87,0,0,1-3.556,1.143,6.375,6.375,0,0,1-1.524-.254,6.2,6.2,0,0,1-1.4-4.445c0-5.334,3.81-11.939,8.382-14.606A6.87,6.87,0,0,1,32.239,21.2a6.375,6.375,0,0,1,1.524.254,6.419,6.419,0,0,1,1.4,4.445Z" transform="translate(-7.98 -19.366)" fill="#3f9ae0" opacity="0.4"/>
            <g id="Grupo_1227855" data-name="Grupo 1227855" transform="translate(14.921 4.374)" opacity="0.4">
              <path id="Trazado_1306875" data-name="Trazado 1306875" d="M22.541,37.806a14.946,14.946,0,0,1,1.4-9.017c1.4-2.794,3.937-5.588,6.985-5.588-2.667,1.016-4.572,3.556-5.842,6.223A30.6,30.6,0,0,0,22.541,37.806Z" transform="translate(-22.348 -23.2)" fill="#fff"/>
            </g>
          </g>
          <g id="Grupo_1227857" data-name="Grupo 1227857" transform="translate(0 24.568)">
            <path id="Trazado_1306876" data-name="Trazado 1306876" d="M19.236,39.481a4.228,4.228,0,0,1-.762-.381A58,58,0,0,0,10.6,50.912c0-.127.381,0,.762.254l.127.127,8-11.558a.273.273,0,0,0-.254-.254Z" transform="translate(-10.6 -39.1)" fill="#e86d6d"/>
            <path id="Trazado_1306877" data-name="Trazado 1306877" d="M19.4,39.6l-8,11.558A12.883,12.883,0,0,1,13.051,52.3l8-11.558A4.833,4.833,0,0,0,19.4,39.6Z" transform="translate(-10.384 -38.965)" fill="#cc5c5c"/>
            <path id="Trazado_1306878" data-name="Trazado 1306878" d="M20.7,40.4l-8,11.558c.127.127.381.254.508.381s.254.254.254.381A61.725,61.725,0,0,0,21.59,41.162a.443.443,0,0,1-.127-.254A2.657,2.657,0,0,1,20.7,40.4Z" transform="translate(-10.033 -38.749)" fill="#b75151"/>
          </g>
        </g>
      </g>
    </g>
  </g>
</svg>
