<svg xmlns="http://www.w3.org/2000/svg" xmlns:xlink="http://www.w3.org/1999/xlink" width="108.914" height="108.914" viewBox="0 0 108.914 108.914">
  <defs>
    <filter id="Trazado_1308412" x="0" y="0" width="108.914" height="108.914" filterUnits="userSpaceOnUse">
      <feOffset dy="3" input="SourceAlpha"/>
      <feGaussianBlur stdDeviation="3" result="blur"/>
      <feFlood flood-opacity="0.161"/>
      <feComposite operator="in" in2="blur"/>
      <feComposite in="SourceGraphic"/>
    </filter>
  </defs>
  <g id="Grupo_1233229" data-name="Grupo 1233229" transform="translate(-992 474.734)">
    <g transform="matrix(1, 0, 0, 1, 992, -474.73)" filter="url(#Trazado_1308412)">
      <g id="Trazado_1308412-2" data-name="Trazado 1308412" transform="translate(9 6)" fill="#d7d9de" opacity="0.859">
        <path d="M 45.45676803588867 89.41407012939453 C 39.52198028564453 89.41407012939453 33.76551818847656 88.25206756591797 28.34726715087891 85.96034240722656 C 23.11311721801758 83.74648284912109 18.41204261779785 80.57682800292969 14.37464332580566 76.5394287109375 C 10.33724308013916 72.50202941894531 7.167593002319336 67.80095672607422 4.953730583190918 62.56679534912109 C 2.662005424499512 57.14855575561523 1.500005483627319 51.39208221435547 1.500005483627319 45.45729446411133 C 1.500005483627319 39.52198028564453 2.662005424499512 33.76551818847656 4.953730583190918 28.34726905822754 C 7.167593002319336 23.11310577392578 10.33724308013916 18.41203117370605 14.37464332580566 14.37464332580566 C 18.41204261779785 10.33724403381348 23.11311721801758 7.167593955993652 28.34726715087891 4.953731060028076 C 33.76551818847656 2.662006139755249 39.52198028564453 1.500006198883057 45.45676803588867 1.500006198883057 C 51.39155578613281 1.500006198883057 57.14802932739258 2.662006139755249 62.56626892089844 4.953731060028076 C 67.80043029785156 7.167593955993652 72.50150299072266 10.33724403381348 76.53890228271484 14.37464332580566 C 80.57630920410156 18.41203117370605 83.74595642089844 23.11310577392578 85.95981597900391 28.34726905822754 C 88.25154113769531 33.76551818847656 89.41354370117188 39.52198028564453 89.41354370117188 45.45676803588867 C 89.41354370117188 51.39208221435547 88.25154113769531 57.14855575561523 85.95981597900391 62.56679534912109 C 83.74595642089844 67.80095672607422 80.57630920410156 72.50202941894531 76.53890228271484 76.5394287109375 C 72.50150299072266 80.57682800292969 67.80043029785156 83.74648284912109 62.56626892089844 85.96034240722656 C 57.14802932739258 88.25206756591797 51.39155578613281 89.41407012939453 45.45676803588867 89.41407012939453 Z" stroke="none"/>
        <path d="M 45.45676803588867 3 C 39.72381210327148 3 34.1639404296875 4.12213134765625 28.93159484863281 6.335227966308594 C 23.87622833251953 8.473472595214844 19.33542633056641 11.53517150878906 15.43529510498047 15.435302734375 C 11.53517150878906 19.33543395996094 8.473464965820312 23.87622833251953 6.335227966308594 28.93160247802734 C 4.122123718261719 34.16394424438477 3 39.72381591796875 3 45.4572868347168 C 3 51.19024658203125 4.122123718261719 56.75011825561523 6.335227966308594 61.98246002197266 C 8.473464965820312 67.03782653808594 11.53517150878906 71.57862854003906 15.43529510498047 75.478759765625 C 19.33542633056641 79.37889099121094 23.87622833251953 82.44058990478516 28.93159484863281 84.57883453369141 C 34.1639404296875 86.79193115234375 39.72381210327148 87.9140625 45.45676803588867 87.9140625 C 51.18972396850586 87.9140625 56.74959564208984 86.79193115234375 61.98194122314453 84.57883453369141 C 67.03730773925781 82.44058990478516 71.57810974121094 79.37889099121094 75.47824096679688 75.478759765625 C 79.37837219238281 71.57862854003906 82.44007110595703 67.03782653808594 84.57830810546875 61.98246002197266 C 86.79141235351562 56.75011825561523 87.91353607177734 51.19024658203125 87.91353607177734 45.4567756652832 C 87.91353607177734 39.72381591796875 86.79141235351562 34.16394424438477 84.57830810546875 28.93160247802734 C 82.44007110595703 23.87622833251953 79.37837219238281 19.33543395996094 75.47824096679688 15.435302734375 C 71.57810974121094 11.53517150878906 67.03730773925781 8.473472595214844 61.98194122314453 6.335227966308594 C 56.74959564208984 4.12213134765625 51.18972396850586 3 45.45676803588867 3 M 45.45676803588867 0 C 70.56185150146484 0 90.91353607177734 20.35169219970703 90.91353607177734 45.4567756652832 L 90.91353607177734 45.4572868347168 C 90.91353607177734 70.5623779296875 70.56185150146484 90.9140625 45.45676803588867 90.9140625 C 20.3516845703125 90.9140625 0 70.5623779296875 0 45.4572868347168 L 0 45.4567756652832 C 0 20.35169219970703 20.3516845703125 0 45.45676803588867 0 Z" stroke="none" fill="#fff"/>
      </g>
    </g>
    <g id="_x32_3" transform="translate(1012.61 -457.304)">
      <g id="Grupo_1228300" data-name="Grupo 1228300" transform="translate(9.469 3.374)">
        <g id="Grupo_1228293" data-name="Grupo 1228293">
          <g id="Grupo_1228281" data-name="Grupo 1228281">
            <g id="Grupo_1228280" data-name="Grupo 1228280">
              <g id="Grupo_1228279" data-name="Grupo 1228279">
                <g id="Grupo_1228278" data-name="Grupo 1228278">
                  <g id="Grupo_1228277" data-name="Grupo 1228277">
                    <g id="Grupo_1228276" data-name="Grupo 1228276">
                      <g id="Grupo_1228250" data-name="Grupo 1228250">
                        <g id="Grupo_1228249" data-name="Grupo 1228249">
                          <g id="Grupo_1228248" data-name="Grupo 1228248">
                            <path id="Trazado_1307095" data-name="Trazado 1307095" d="M42.483,5.428a.734.734,0,0,0-.744.063l-28.752,58a.728.728,0,0,0,.3.668l-3.4-1.98a.748.748,0,0,1-.3-.656L9.469,21.38A2.3,2.3,0,0,1,10.5,19.589L38.334,3.523a.691.691,0,0,1,.731-.076Z" transform="translate(-9.469 -3.374)" fill="#4c5c75"/>
                          </g>
                        </g>
                      </g>
                      <g id="Grupo_1228253" data-name="Grupo 1228253" transform="translate(3.408 1.981)">
                        <g id="Grupo_1228252" data-name="Grupo 1228252">
                          <g id="Grupo_1228251" data-name="Grupo 1228251">
                            <path id="Trazado_1307096" data-name="Trazado 1307096" d="M41.038,5.087c.57-.329,1.034-.065,1.036.59l.114,40.14A2.27,2.27,0,0,1,41.158,47.6L13.321,63.671c-.566.327-1.034.065-1.036-.59l-.114-40.14A2.276,2.276,0,0,1,13.2,21.158Z" transform="translate(-12.171 -4.945)" fill="#1d2943"/>
                          </g>
                        </g>
                      </g>
                      <g id="Grupo_1228256" data-name="Grupo 1228256" transform="translate(5.27 4.539)">
                        <g id="Grupo_1228255" data-name="Grupo 1228255">
                          <g id="Grupo_1228254" data-name="Grupo 1228254">
                            <path id="Trazado_1307097" data-name="Trazado 1307097" d="M39.83,6.974l.11,38.634L13.757,60.724l-.11-38.634Z" transform="translate(-13.648 -6.974)" fill="#fff"/>
                          </g>
                        </g>
                      </g>
                      <g id="Grupo_1228275" data-name="Grupo 1228275" transform="translate(7.568 3.921)">
                        <g id="Grupo_1228261" data-name="Grupo 1228261" transform="translate(0 7.768)">
                          <g id="Grupo_1228260" data-name="Grupo 1228260">
                            <g id="Grupo_1228259" data-name="Grupo 1228259">
                              <g id="Grupo_1228258" data-name="Grupo 1228258">
                                <g id="Grupo_1228257" data-name="Grupo 1228257">
                                  <path id="Trazado_1307098" data-name="Trazado 1307098" d="M18.912,14.631l0,.753L15.47,13.4l0-.753Z" transform="translate(-15.47 -12.644)" fill="#9ea9c9"/>
                                </g>
                              </g>
                            </g>
                          </g>
                        </g>
                        <g id="Grupo_1228274" data-name="Grupo 1228274" transform="translate(0.002)">
                          <g id="Grupo_1228273" data-name="Grupo 1228273">
                            <g id="Grupo_1228264" data-name="Grupo 1228264" transform="translate(3.27 9.65)">
                              <g id="Grupo_1228263" data-name="Grupo 1228263">
                                <g id="Grupo_1228262" data-name="Grupo 1228262">
                                  <path id="Trazado_1307099" data-name="Trazado 1307099" d="M19.572,19.249l-.817-.475a1.639,1.639,0,0,1-.678-1.5l-.012-3.136.817.475.535,2.943c0,.736-.263,1.451.155,1.695Z" transform="translate(-18.065 -14.136)" fill="#9ea9c9"/>
                                </g>
                              </g>
                            </g>
                            <g id="Grupo_1228267" data-name="Grupo 1228267">
                              <g id="Grupo_1228266" data-name="Grupo 1228266">
                                <g id="Grupo_1228265" data-name="Grupo 1228265">
                                  <path id="Trazado_1307100" data-name="Trazado 1307100" d="M32.959,8.892c-2.875,4.737-7.823,6.662-13.392,7.743l-.656-.378-.164-.1-3.276-1.9L28.826,6.484l3.314,1.941.126.076Z" transform="translate(-15.471 -6.484)" fill="#e3e7f0"/>
                                </g>
                              </g>
                            </g>
                            <g id="Grupo_1228272" data-name="Grupo 1228272" transform="translate(4.088 2.41)">
                              <g id="Grupo_1228271" data-name="Grupo 1228271">
                                <g id="Grupo_1228268" data-name="Grupo 1228268">
                                  <path id="Trazado_1307101" data-name="Trazado 1307101" d="M32.111,8.4l.011,3.116a5.124,5.124,0,0,1-2.328,4.032l-8.731,5.041c-1.288.744-2.335.147-2.339-1.337l-.011-3.116Z" transform="translate(-18.713 -8.395)" fill="#c9cee2"/>
                                </g>
                                <g id="Grupo_1228269" data-name="Grupo 1228269" transform="translate(1.175 1.656)">
                                  <path id="Trazado_1307102" data-name="Trazado 1307102" d="M30.717,11.411a4.069,4.069,0,0,1-1.82,3.135l-8.125,4.7a1.321,1.321,0,0,1-.622.2c-.282,0-.411-.223-.458-.458a1.494,1.494,0,0,1-.047-.376V16.1l10.25-5.918.81-.47Z" transform="translate(-19.645 -9.708)" fill="#e3e7f0"/>
                                </g>
                                <g id="Grupo_1228270" data-name="Grupo 1228270" transform="translate(1.175 2.125)">
                                  <path id="Trazado_1307103" data-name="Trazado 1307103" d="M29.895,10.081v.834a4.071,4.071,0,0,1-1.82,3.147l-8.125,4.7a1.761,1.761,0,0,1-.258.129,1.494,1.494,0,0,1-.047-.376V16Z" transform="translate(-19.645 -10.081)" fill="#fff"/>
                                </g>
                              </g>
                            </g>
                          </g>
                        </g>
                      </g>
                    </g>
                  </g>
                </g>
              </g>
            </g>
          </g>
          <g id="Grupo_1228286" data-name="Grupo 1228286" transform="translate(7.021 23.963)">
            <g id="Grupo_1228285" data-name="Grupo 1228285">
              <g id="Grupo_1228282" data-name="Grupo 1228282" transform="translate(0.066 21.375)">
                <path id="Trazado_1307104" data-name="Trazado 1307104" d="M20.959,41.387a6.428,6.428,0,0,1-2.919,5.074c-1.625.929-2.952.2-2.952-1.675a6.416,6.416,0,0,1,2.935-5.058c1.609-.929,2.935-.2,2.935,1.658Z" transform="translate(-15.089 -39.327)" fill="#678aee"/>
              </g>
              <g id="Grupo_1228283" data-name="Grupo 1228283">
                <path id="Trazado_1307105" data-name="Trazado 1307105" d="M15.036,27.836a6.416,6.416,0,0,1,2.935-5.058c1.609-.929,2.935-.2,2.952,1.675a6.486,6.486,0,0,1-2.935,5.058C16.38,30.44,15.053,29.71,15.036,27.836Z" transform="translate(-15.036 -22.377)" fill="#f45170"/>
              </g>
              <g id="Grupo_1228284" data-name="Grupo 1228284" transform="translate(0.033 10.682)">
                <path id="Trazado_1307106" data-name="Trazado 1307106" d="M15.063,36.3A6.441,6.441,0,0,1,18,31.247c1.608-.929,2.935-.182,2.935,1.675A6.453,6.453,0,0,1,18.015,38c-1.625.929-2.952.182-2.952-1.691Z" transform="translate(-15.063 -30.848)" fill="#4c5c75"/>
              </g>
            </g>
          </g>
          <g id="Grupo_1228288" data-name="Grupo 1228288" transform="translate(14.596 15.394)">
            <g id="Grupo_1228287" data-name="Grupo 1228287">
              <path id="Trazado_1307107" data-name="Trazado 1307107" d="M36.237,16.638a3.28,3.28,0,0,1-1.473,2.548L22.531,26.249c-.825.471-1.488.088-1.488-.854a3.187,3.187,0,0,1,.427-1.443,3.151,3.151,0,0,1,1.046-1.1L34.75,15.783c.825-.471,1.473-.088,1.488.854Z" transform="translate(-21.043 -15.582)" fill="#e9e7fc"/>
            </g>
          </g>
          <g id="Grupo_1228290" data-name="Grupo 1228290" transform="translate(14.596 26.065)">
            <g id="Grupo_1228289" data-name="Grupo 1228289">
              <path id="Trazado_1307108" data-name="Trazado 1307108" d="M36.237,25.1a3.28,3.28,0,0,1-1.473,2.548L22.531,34.711c-.825.471-1.488.088-1.488-.854a3.187,3.187,0,0,1,.427-1.443,3.151,3.151,0,0,1,1.046-1.1L34.75,24.246c.825-.471,1.473-.088,1.488.854Z" transform="translate(-21.043 -24.044)" fill="#e9e7fc"/>
            </g>
          </g>
          <g id="Grupo_1228292" data-name="Grupo 1228292" transform="translate(14.596 39.484)">
            <g id="Grupo_1228291" data-name="Grupo 1228291">
              <path id="Trazado_1307109" data-name="Trazado 1307109" d="M31.479,35.741a3.28,3.28,0,0,1-1.473,2.548L22.531,42.6c-.825.471-1.488.088-1.488-.854a3.187,3.187,0,0,1,.427-1.443,3.151,3.151,0,0,1,1.046-1.1l7.475-4.316c.825-.471,1.473-.088,1.488.854Z" transform="translate(-21.043 -34.685)" fill="#e9e7fc"/>
            </g>
          </g>
        </g>
        <g id="Grupo_1228295" data-name="Grupo 1228295" transform="translate(7.968 23.499)">
          <g id="Grupo_1228294" data-name="Grupo 1228294" transform="translate(0 0)">
            <path id="Trazado_1307110" data-name="Trazado 1307110" d="M20.278,22.072a.331.331,0,0,1,.32-.036c.173.1.173.432,0,.729l-3.245,5.648a.922.922,0,0,1-.317.331.327.327,0,0,1-.318.035l-.8-.455c-.178-.1-.179-.429,0-.729a.9.9,0,0,1,.315-.335.321.321,0,0,1,.32-.031l.48.274,2.929-5.1a.9.9,0,0,1,.315-.33Z" transform="translate(-15.788 -22.009)" fill="#f3f1fc"/>
          </g>
        </g>
        <g id="Grupo_1228297" data-name="Grupo 1228297" transform="translate(7.968 33.852)">
          <g id="Grupo_1228296" data-name="Grupo 1228296">
            <path id="Trazado_1307111" data-name="Trazado 1307111" d="M20.278,30.281a.331.331,0,0,1,.32-.036c.173.1.173.432,0,.729l-3.245,5.648a.922.922,0,0,1-.317.331.327.327,0,0,1-.318.035l-.8-.455c-.178-.1-.179-.429,0-.729a.9.9,0,0,1,.315-.335.321.321,0,0,1,.32-.031l.48.274,2.929-5.1a.9.9,0,0,1,.315-.33Z" transform="translate(-15.788 -30.218)" fill="#f3f1fc"/>
          </g>
        </g>
        <g id="Grupo_1228299" data-name="Grupo 1228299" transform="translate(7.968 44.557)">
          <g id="Grupo_1228298" data-name="Grupo 1228298">
            <path id="Trazado_1307112" data-name="Trazado 1307112" d="M20.278,38.771a.331.331,0,0,1,.32-.036c.173.1.173.432,0,.729l-3.245,5.648a.922.922,0,0,1-.317.331.327.327,0,0,1-.318.035l-.8-.455c-.178-.1-.179-.429,0-.729a.9.9,0,0,1,.315-.335.321.321,0,0,1,.32-.031l.48.273,2.929-5.1a.9.9,0,0,1,.315-.33Z" transform="translate(-15.788 -38.708)" fill="#f3f1fc"/>
          </g>
        </g>
      </g>
      <g id="Grupo_1228306" data-name="Grupo 1228306" transform="translate(32.005 32.847)">
        <g id="Grupo_1228305" data-name="Grupo 1228305">
          <g id="Grupo_1228302" data-name="Grupo 1228302" transform="translate(0.541 1.331)">
            <g id="Grupo_1228301" data-name="Grupo 1228301">
              <path id="Trazado_1307113" data-name="Trazado 1307113" d="M47.391,30.413,33.935,53.566,30.556,51.6c-1.715-1-2.762-3.09-2.787-6.078-.013-6.04,4.25-13.38,9.483-16.406,2.636-1.538,5.044-1.677,6.772-.668Z" transform="translate(-27.769 -27.801)" fill="#5ec363"/>
            </g>
          </g>
          <g id="Grupo_1228304" data-name="Grupo 1228304">
            <g id="Grupo_1228303" data-name="Grupo 1228303">
              <ellipse id="Elipse_13766" data-name="Elipse 13766" cx="13.395" cy="7.759" rx="13.395" ry="7.759" transform="translate(0 23.173) rotate(-59.871)" fill="#78e75a"/>
            </g>
          </g>
        </g>
      </g>
      <g id="Grupo_1228309" data-name="Grupo 1228309" transform="translate(40.924 42.789)">
        <g id="Grupo_1228308" data-name="Grupo 1228308">
          <g id="Grupo_1228307" data-name="Grupo 1228307">
            <path id="Trazado_1307114" data-name="Trazado 1307114" d="M43.223,36.126l-5.158,8.928a1.749,1.749,0,0,1-.593.618.854.854,0,0,1-.4.114.54.54,0,0,1-.277-.076l-2.081-1.173a.6.6,0,0,1-.265-.378,1.431,1.431,0,0,1,.2-1.047,1.831,1.831,0,0,1,.58-.618.694.694,0,0,1,.694-.05l1.412.807,4.552-7.882a1.62,1.62,0,0,1,.58-.618.694.694,0,0,1,.694-.05c.366.227.391.832.063,1.425Z" transform="translate(-34.412 -34.63)" fill="#fff"/>
          </g>
        </g>
      </g>
    </g>
  </g>
</svg>
